<mxfile host="app.diagrams.net" agent="Mozilla/5.0 (X11; Linux x86_64) AppleWebKit/537.36 (KHTML, like Gecko) Chrome/131.0.0.0 Safari/537.36" version="26.0.11">
  <diagram name="Page-1" id="c4acf3e9-155e-7222-9cf6-157b1a14988f">
    <mxGraphModel dx="1364" dy="759" grid="1" gridSize="10" guides="1" tooltips="1" connect="1" arrows="1" fold="1" page="1" pageScale="1" pageWidth="413" pageHeight="583" background="none" math="0" shadow="0">
      <root>
        <mxCell id="0" />
        <mxCell id="1" parent="0" />
        <mxCell id="5d2195bd80daf111-21" style="edgeStyle=orthogonalEdgeStyle;rounded=0;html=1;labelBackgroundColor=none;startFill=0;endArrow=open;endFill=0;endSize=10;fontFamily=Verdana;fontSize=10;dashed=1;entryX=0;entryY=0.5;entryDx=0;entryDy=0;exitX=0.5;exitY=0;exitDx=0;exitDy=0;" parent="1" source="HSs-l-SZiQe8o6kCDMo0-27" target="HSs-l-SZiQe8o6kCDMo0-12" edge="1">
          <mxGeometry relative="1" as="geometry">
            <mxPoint x="155" y="87" as="sourcePoint" />
            <mxPoint x="350" y="71" as="targetPoint" />
          </mxGeometry>
        </mxCell>
        <mxCell id="HSs-l-SZiQe8o6kCDMo0-5" style="edgeStyle=orthogonalEdgeStyle;rounded=0;html=1;labelBackgroundColor=none;startFill=0;endArrow=open;endFill=0;endSize=10;fontFamily=Verdana;fontSize=10;dashed=1;exitX=0.5;exitY=0;exitDx=0;exitDy=0;entryX=1;entryY=0.5;entryDx=0;entryDy=0;" edge="1" parent="1" source="HSs-l-SZiQe8o6kCDMo0-34" target="HSs-l-SZiQe8o6kCDMo0-12">
          <mxGeometry relative="1" as="geometry">
            <mxPoint x="700" y="100" as="sourcePoint" />
            <mxPoint x="510" y="70" as="targetPoint" />
            <Array as="points">
              <mxPoint x="680" y="67" />
            </Array>
          </mxGeometry>
        </mxCell>
        <mxCell id="HSs-l-SZiQe8o6kCDMo0-7" style="edgeStyle=orthogonalEdgeStyle;rounded=0;html=1;labelBackgroundColor=none;startFill=0;endArrow=open;endFill=0;endSize=10;fontFamily=Verdana;fontSize=10;dashed=1;entryX=0.475;entryY=1.038;entryDx=0;entryDy=0;entryPerimeter=0;exitX=0.5;exitY=0;exitDx=0;exitDy=0;" edge="1" parent="1" source="HSs-l-SZiQe8o6kCDMo0-38" target="HSs-l-SZiQe8o6kCDMo0-14">
          <mxGeometry relative="1" as="geometry">
            <mxPoint x="430" y="180" as="sourcePoint" />
            <mxPoint x="420" y="130" as="targetPoint" />
            <Array as="points">
              <mxPoint x="416" y="260" />
            </Array>
          </mxGeometry>
        </mxCell>
        <mxCell id="HSs-l-SZiQe8o6kCDMo0-11" value="Iphone2007" style="swimlane;fontStyle=1;align=center;verticalAlign=top;childLayout=stackLayout;horizontal=1;startSize=26;horizontalStack=0;resizeParent=1;resizeParentMax=0;resizeLast=0;collapsible=1;marginBottom=0;whiteSpace=wrap;html=1;" vertex="1" parent="1">
          <mxGeometry x="340" y="14" width="160" height="114" as="geometry" />
        </mxCell>
        <mxCell id="HSs-l-SZiQe8o6kCDMo0-12" value="+ numero: String&lt;div&gt;+ musica: String&lt;/div&gt;&lt;div&gt;+ url: String&lt;/div&gt;" style="text;strokeColor=none;fillColor=none;align=left;verticalAlign=top;spacingLeft=4;spacingRight=4;overflow=hidden;rotatable=0;points=[[0,0.5],[1,0.5]];portConstraint=eastwest;whiteSpace=wrap;html=1;" vertex="1" parent="HSs-l-SZiQe8o6kCDMo0-11">
          <mxGeometry y="26" width="160" height="54" as="geometry" />
        </mxCell>
        <mxCell id="HSs-l-SZiQe8o6kCDMo0-13" value="" style="line;strokeWidth=1;fillColor=none;align=left;verticalAlign=middle;spacingTop=-1;spacingLeft=3;spacingRight=3;rotatable=0;labelPosition=right;points=[];portConstraint=eastwest;strokeColor=inherit;" vertex="1" parent="HSs-l-SZiQe8o6kCDMo0-11">
          <mxGeometry y="80" width="160" height="8" as="geometry" />
        </mxCell>
        <mxCell id="HSs-l-SZiQe8o6kCDMo0-14" value="&amp;nbsp;" style="text;strokeColor=none;fillColor=none;align=left;verticalAlign=top;spacingLeft=4;spacingRight=4;overflow=hidden;rotatable=0;points=[[0,0.5],[1,0.5]];portConstraint=eastwest;whiteSpace=wrap;html=1;" vertex="1" parent="HSs-l-SZiQe8o6kCDMo0-11">
          <mxGeometry y="88" width="160" height="26" as="geometry" />
        </mxCell>
        <mxCell id="HSs-l-SZiQe8o6kCDMo0-27" value="&lt;div&gt;&lt;i style=&quot;font-weight: 400; text-wrap-mode: nowrap;&quot;&gt;&amp;lt;&amp;lt;Interface&amp;gt;&amp;gt;&lt;/i&gt;&lt;br style=&quot;font-weight: 400; text-wrap-mode: nowrap;&quot;&gt;&lt;b style=&quot;text-wrap-mode: nowrap;&quot;&gt;Reprodutor Musical&lt;/b&gt;&lt;/div&gt;&lt;div&gt;&lt;b style=&quot;text-wrap-mode: nowrap;&quot;&gt;&lt;br&gt;&lt;/b&gt;&lt;/div&gt;" style="swimlane;fontStyle=1;align=center;verticalAlign=top;childLayout=stackLayout;horizontal=1;startSize=40;horizontalStack=0;resizeParent=1;resizeParentMax=0;resizeLast=0;collapsible=1;marginBottom=0;whiteSpace=wrap;html=1;" vertex="1" parent="1">
          <mxGeometry x="20" y="90" width="260" height="108" as="geometry" />
        </mxCell>
        <mxCell id="HSs-l-SZiQe8o6kCDMo0-29" value="" style="line;strokeWidth=1;fillColor=none;align=left;verticalAlign=middle;spacingTop=-1;spacingLeft=3;spacingRight=3;rotatable=0;labelPosition=right;points=[];portConstraint=eastwest;strokeColor=inherit;" vertex="1" parent="HSs-l-SZiQe8o6kCDMo0-27">
          <mxGeometry y="40" width="260" height="8" as="geometry" />
        </mxCell>
        <mxCell id="HSs-l-SZiQe8o6kCDMo0-30" value="&lt;p style=&quot;text-wrap-mode: nowrap; margin: 0px 0px 0px 4px;&quot;&gt;+ tocar ( ): void&lt;br&gt;+ pausar ( ): void&lt;/p&gt;&lt;p style=&quot;text-wrap-mode: nowrap; margin: 0px 0px 0px 4px;&quot;&gt;+ selecionarMusica(String musica): String&lt;/p&gt;" style="text;strokeColor=none;fillColor=none;align=left;verticalAlign=top;spacingLeft=4;spacingRight=4;overflow=hidden;rotatable=0;points=[[0,0.5],[1,0.5]];portConstraint=eastwest;whiteSpace=wrap;html=1;" vertex="1" parent="HSs-l-SZiQe8o6kCDMo0-27">
          <mxGeometry y="48" width="260" height="60" as="geometry" />
        </mxCell>
        <mxCell id="HSs-l-SZiQe8o6kCDMo0-34" value="&lt;div&gt;&lt;p style=&quot;font-weight: 400; text-wrap-mode: nowrap; margin: 4px 0px 0px;&quot;&gt;&lt;i&gt;&amp;lt;&amp;lt;Interface&amp;gt;&amp;gt;&lt;/i&gt;&lt;br&gt;&lt;/p&gt;&lt;p style=&quot;font-weight: 400; text-wrap-mode: nowrap; margin: 4px 0px 0px;&quot;&gt;&lt;i&gt;&lt;b&gt;Aparelho Telefonico&lt;/b&gt;&lt;/i&gt;&lt;/p&gt;&lt;/div&gt;" style="swimlane;fontStyle=1;align=center;verticalAlign=top;childLayout=stackLayout;horizontal=1;startSize=50;horizontalStack=0;resizeParent=1;resizeParentMax=0;resizeLast=0;collapsible=1;marginBottom=0;whiteSpace=wrap;html=1;" vertex="1" parent="1">
          <mxGeometry x="550" y="100" width="260" height="118" as="geometry" />
        </mxCell>
        <mxCell id="HSs-l-SZiQe8o6kCDMo0-36" value="" style="line;strokeWidth=1;fillColor=none;align=left;verticalAlign=middle;spacingTop=-1;spacingLeft=3;spacingRight=3;rotatable=0;labelPosition=right;points=[];portConstraint=eastwest;strokeColor=inherit;" vertex="1" parent="HSs-l-SZiQe8o6kCDMo0-34">
          <mxGeometry y="50" width="260" height="8" as="geometry" />
        </mxCell>
        <mxCell id="HSs-l-SZiQe8o6kCDMo0-37" value="&lt;p style=&quot;text-wrap-mode: nowrap; margin: 0px 0px 0px 4px;&quot;&gt;+ ligar(String numero): String&lt;br&gt;+ atender ( ): void&lt;/p&gt;&lt;p style=&quot;text-wrap-mode: nowrap; margin: 0px 0px 0px 4px;&quot;&gt;+ iniciarCorreioDeVoz( ): void&lt;/p&gt;" style="text;strokeColor=none;fillColor=none;align=left;verticalAlign=top;spacingLeft=4;spacingRight=4;overflow=hidden;rotatable=0;points=[[0,0.5],[1,0.5]];portConstraint=eastwest;whiteSpace=wrap;html=1;" vertex="1" parent="HSs-l-SZiQe8o6kCDMo0-34">
          <mxGeometry y="58" width="260" height="60" as="geometry" />
        </mxCell>
        <mxCell id="HSs-l-SZiQe8o6kCDMo0-38" value="&lt;p style=&quot;font-weight: 400; text-wrap-mode: nowrap; margin: 4px 0px 0px;&quot;&gt;&lt;i&gt;&amp;lt;&amp;lt;Interface&amp;gt;&amp;gt;&lt;/i&gt;&lt;br&gt;&lt;/p&gt;&lt;p style=&quot;font-weight: 400; text-wrap-mode: nowrap; margin: 4px 0px 0px;&quot;&gt;&lt;b&gt;&lt;i&gt;Navegador na Internet&lt;/i&gt;&lt;/b&gt;&lt;/p&gt;" style="swimlane;fontStyle=1;align=center;verticalAlign=top;childLayout=stackLayout;horizontal=1;startSize=50;horizontalStack=0;resizeParent=1;resizeParentMax=0;resizeLast=0;collapsible=1;marginBottom=0;whiteSpace=wrap;html=1;" vertex="1" parent="1">
          <mxGeometry x="315" y="244" width="210" height="118" as="geometry" />
        </mxCell>
        <mxCell id="HSs-l-SZiQe8o6kCDMo0-40" value="" style="line;strokeWidth=1;fillColor=none;align=left;verticalAlign=middle;spacingTop=-1;spacingLeft=3;spacingRight=3;rotatable=0;labelPosition=right;points=[];portConstraint=eastwest;strokeColor=inherit;" vertex="1" parent="HSs-l-SZiQe8o6kCDMo0-38">
          <mxGeometry y="50" width="210" height="8" as="geometry" />
        </mxCell>
        <mxCell id="HSs-l-SZiQe8o6kCDMo0-41" value="&lt;p style=&quot;text-wrap-mode: nowrap; margin: 0px 0px 0px 4px;&quot;&gt;+ exibirPagina(String url): String&lt;br&gt;+ adicionarNovaAba ( ): void&lt;/p&gt;&lt;p style=&quot;text-wrap-mode: nowrap; margin: 0px 0px 0px 4px;&quot;&gt;+ atualizarPagina ( ): void&lt;/p&gt;" style="text;strokeColor=none;fillColor=none;align=left;verticalAlign=top;spacingLeft=4;spacingRight=4;overflow=hidden;rotatable=0;points=[[0,0.5],[1,0.5]];portConstraint=eastwest;whiteSpace=wrap;html=1;" vertex="1" parent="HSs-l-SZiQe8o6kCDMo0-38">
          <mxGeometry y="58" width="210" height="60" as="geometry" />
        </mxCell>
      </root>
    </mxGraphModel>
  </diagram>
</mxfile>
